PathFileType	4	(X/Y/Z)	./resultDataOpenSim/trcMotMarkerGrf/sub10/qtm-04-08.trc
DataRate	CameraRate	NumFrames	NumMarkers	Units	OrigDataRate	OrigDataStartFrame	OrigNumFrames
250.000000	250.000000	8	24	m	250.000000	1	541
Frame#	Time	L.Toe.Tip			R.Toe.Tip			L.Ankle.Lat			R.Ankle.Lat			L.Ankle.Med			R.Ankle.Med			L.Heel			R.Heel			L.Knee.Lat			R.Knee.Lat			L.Knee.Med			R.Knee.Med			L.Thigh.Upper			R.Thigh.Upper			L.ASIS			R.ASIS			V.Sacral			L.Acromium			R.Acromium			C7			L.Elbow			R.Elbow			L.Wrist.Lat			R.Wrist.Lat
		X1	Y1	Z1	X2	Y2	Z2	X3	Y3	Z3	X4	Y4	Z4	X5	Y5	Z5	X6	Y6	Z6	X7	Y7	Z7	X8	Y8	Z8	X9	Y9	Z9	X10	Y10	Z10	X11	Y11	Z11	X12	Y12	Z12	X13	Y13	Z13	X14	Y14	Z14	X15	Y15	Z15	X16	Y16	Z16	X17	Y17	Z17	X18	Y18	Z18	X19	Y19	Z19	X20	Y20	Z20	X21	Y21	Z21	X22	Y22	Z22	X23	Y23	Z23	X24	Y24	Z24

1	0	-1.4910544	0.038620775	-0.16249636	-1.0243288	0.084564399	0.012881365	-1.6251754	0.063700238	-0.1757288	-1.1619109	0.061792982	0.012243423	-1.6070129	0.084568854	-0.094625565	-1.1335198	0.099596923	-0.061485918	NaN	NaN	NaN	-1.1908117	0.026172103	-0.05277054	-1.4943143	0.43072599	-0.20743476	-1.2169495	0.45621507	0.06435361	-1.4912228	0.40603411	-0.086570652	-1.1859263	0.47158046	-0.060796902	-1.4059998	0.81599182	-0.26121542	-1.3702337	0.84234716	0.1205223	-1.3336095	0.91969753	-0.20343551	-1.3081466	0.93589614	0.040321115	-1.521276	0.94260007	-0.069276347	-1.3456452	1.3827265	-0.25202976	-1.3740748	1.3994417	0.072934073	-1.4392746	1.4271835	-0.10227216	-1.4301604	1.0409127	-0.29477148	-1.501762	1.0695153	0.1050347	-1.2557717	0.86461887	-0.27788224	-1.4064513	0.87256583	0.21130122
2	0.004	-1.4912365	0.038471229	-0.16218602	-1.0129908	0.086182435	0.013389514	-1.6250504	0.06383447	-0.17568467	-1.1499688	0.061699158	0.013109848	-1.6071058	0.084620413	-0.094489914	-1.1225209	0.10005011	-0.060806456	NaN	NaN	NaN	-1.1786749	0.025737707	-0.051790242	-1.4923455	0.43012267	-0.20731964	-1.21212	0.45513104	0.065070246	-1.4887993	0.40536407	-0.086536294	-1.1817304	0.47060239	-0.060443177	-1.402945	0.81514282	-0.2611344	-1.3663309	0.84133082	0.12062203	-1.3300629	0.91878908	-0.20343067	-1.3039391	0.93493975	0.040262555	-1.5175871	0.94157017	-0.068807322	-1.3414313	1.3816071	-0.25181642	-1.3703584	1.3984144	0.073088671	-1.4353004	1.4261866	-0.10239073	-1.425723	1.0397445	-0.29469348	-1.4984862	1.0685962	0.10463276	-1.2508615	0.86396512	-0.27748781	-1.4036985	0.87153552	0.21107243
3	0.008	-1.4915074	0.03833804	-0.1618225	-1.0017307	0.087756488	0.013864545	-1.6249244	0.063985414	-0.17563875	-1.1381766	0.061679142	0.013973249	-1.6071833	0.084687864	-0.094353711	-1.1116239	0.10053511	-0.060089814	NaN	NaN	NaN	-1.166691	0.025388949	-0.050819538	-1.4903428	0.42954165	-0.20721323	-1.2078565	0.45404616	0.065632951	-1.4864063	0.4047492	-0.086500415	-1.1775652	0.46959922	-0.060093845	-1.3998631	0.81430535	-0.26106367	-1.3623962	0.8402967	0.12074508	-1.3265095	0.9178603	-0.20344652	-1.2998029	0.93396187	0.040198312	-1.5138782	0.94055017	-0.068348027	-1.3372021	1.3805028	-0.2515919	-1.3665976	1.3973781	0.07325075	-1.4312943	1.4251995	-0.10241724	-1.4214796	1.0385658	-0.29480244	-1.4952075	1.0675459	0.10423595	-1.2459495	0.86329148	-0.27706335	-1.4010868	0.87049384	0.21087124
4	0.012	-1.4917648	0.038240404	-0.16151329	-0.99055021	0.089301359	0.014227664	-1.6247943	0.064160191	-0.1755916	-1.126585	0.061774068	0.014870361	-1.6072104	0.084778193	-0.094227866	-1.1008779	0.10107258	-0.059313394	NaN	NaN	NaN	-1.1549323	0.025169303	-0.049800286	-1.4883061	0.42898651	-0.20712427	-1.204018	0.45295134	0.066093024	-1.4840979	0.40416944	-0.086437685	-1.1734264	0.4685621	-0.059739464	-1.3967651	0.81347804	-0.26101539	-1.3583746	0.83924755	0.12089454	-1.3229445	0.91690921	-0.20348609	-1.2957243	0.9329606	0.040138815	-1.510141	0.93953319	-0.067907891	-1.3329599	1.3794053	-0.25135117	-1.3627782	1.3963284	0.073443083	-1.4272384	1.4242217	-0.10233185	-1.417475	1.0373266	-0.2952471	-1.4918894	1.0663126	0.10380489	-1.2410322	0.86258179	-0.27660485	-1.3986368	0.86942891	0.21070434
5	0.016	-1.4918822	0.038178274	-0.16135156	-0.97946435	0.090853985	0.01445121	-1.6246544	0.06435818	-0.17554307	-1.1152164	0.06199743	0.015846733	-1.6071459	0.084887461	-0.094131186	-1.0903187	0.101661	-0.058474641	NaN	NaN	NaN	-1.1434296	0.025070772	-0.048671845	-1.4862574	0.42844047	-0.20704075	-1.2001641	0.45185495	0.06657724	-1.4819019	0.40357401	-0.086327455	-1.1693	0.46749315	-0.059359045	-1.3937087	0.81264407	-0.26102581	-1.3542278	0.83819615	0.12106443	-1.3193719	0.91594928	-0.20353607	-1.2916536	0.93194469	0.040096971	-1.506381	0.93850624	-0.06748532	-1.3287286	1.3782961	-0.25109931	-1.3589333	1.3952662	0.073678019	-1.4231362	1.423252	-0.10216203	-1.4135456	1.0360046	-0.29595025	-1.4884981	1.0649963	0.103321	-1.236117	0.86183282	-0.27613538	-1.3962381	0.86833583	0.21055301
6	0.02	-1.4918586	0.038131465	-0.16129541	-0.96852362	0.092430007	0.014609665	-1.6244951	0.06457975	-0.17548935	-1.1040889	0.062340939	0.016916758	-1.6070275	0.085007004	-0.094055403	-1.079971	0.10228701	-0.057579635	NaN	NaN	NaN	-1.1321791	0.025084147	-0.047440134	-1.4842044	0.4278877	-0.20694082	-1.1961216	0.4507766	0.067127218	-1.479797	0.40295072	-0.086178604	-1.1651809	0.46639327	-0.058936425	-1.3907216	0.81179106	-0.26111648	-1.3499936	0.83713832	0.12124324	-1.3157905	0.91498727	-0.2035829	-1.2875564	0.93091296	0.040076294	-1.5026044	0.93746495	-0.067078208	-1.3245199	1.3771727	-0.25084216	-1.3550644	1.3941844	0.073936909	-1.4189955	1.4222865	-0.101942	-1.4094301	1.0346664	-0.29659644	-1.4850378	1.0637738	0.10284436	-1.2312105	0.86105031	-0.2756761	-1.3937483	0.86721806	0.21039238
7	0.024	-1.4917663	0.038086576	-0.16127313	-0.95777828	0.094019539	0.014811546	-1.6243062	0.064830792	-0.17542408	-1.0932031	0.062772197	0.01806242	-1.6071549	0.085103927	-0.093898237	-1.0698498	0.10293876	-0.056637487	NaN	NaN	NaN	-1.1211416	0.025214212	-0.046122631	-1.4821371	0.42733434	-0.20682672	-1.1919555	0.449728	0.067721765	-1.477741	0.40231973	-0.086015169	-1.1610731	0.4652633	-0.058475312	-1.3877587	0.81092862	-0.2612498	-1.3457534	0.83605899	0.12141619	-1.3121907	0.91401807	-0.20362453	-1.2834138	0.92986012	0.040072265	-1.4988177	0.93641605	-0.066702258	-1.3203251	1.3760497	-0.25057705	-1.3511153	1.393076	0.074200229	-1.4148263	1.4213156	-0.10170772	-1.4049538	1.0334017	-0.29692324	-1.4815343	1.0627275	0.10244578	-1.2263152	0.86024097	-0.27522796	-1.3911141	0.8660842	0.21021717
8	0.028	-1.4916916	0.03805059	-0.1612654	-0.94725705	0.095600969	0.015124916	-1.6240932	0.065115268	-0.17534707	-1.0825477	0.063253444	0.019259829	-1.6081854	0.085086273	-0.093429695	-1.0599643	0.10360653	-0.055660805	NaN	NaN	NaN	-1.1102774	0.025443869	-0.044711123	-1.4800391	0.42679098	-0.20671768	-1.1877356	0.44871469	0.068336696	-1.4756844	0.4016924	-0.085856591	-1.1569769	0.46410616	-0.057995229	-1.3847785	0.81007203	-0.26138783	-1.3415256	0.83495828	0.12158039	-1.3085613	0.91303592	-0.20366855	-1.2792254	0.9287854	0.040070892	-1.4950325	0.93536956	-0.066404735	-1.3161247	1.3749356	-0.25029847	-1.3470539	1.3919522	0.074474474	-1.4106376	1.4203295	-0.10147881	-1.4001016	1.0322384	-0.29691496	-1.4780002	1.0618096	0.10213636	-1.2214274	0.85941139	-0.27478629	-1.3883806	0.86494124	0.21004066
